<svg class="grid" width="720" height="241" viewBox="0 0 720 241" fill="none" xmlns="http://www.w3.org/2000/svg" data-v-8cde9d93=""><path d="M1.00048 119.402L200.243 68.2732C213.283 65.4129 221.832 58.4923 221.832 50.7968V20.323V1M1.00048 136.779L231.212 68.7423C242.847 65.5523 250.195 59.0356 250.195 51.9076V20.323V1M1 165.731L263.267 69.1267C272.82 65.6348 278.558 59.7587 278.558 53.4667V20.323V1M719.001 154.23L464.019 69.1276C454.474 65.6348 448.743 59.7616 448.743 53.4731V20.323V1M719.001 125.219L496.078 68.7439C484.449 65.5528 477.106 59.0377 477.106 51.9119V20.323V1M719 107.817L527.05 68.2749C514.015 65.4134 505.469 58.4939 505.469 50.8001V20.323V1M719.001 96.2159L557.314 67.8323C543.291 65.2673 533.835 58.0756 533.835 49.976V20.323V9.78386C533.835 4.93267 529.902 1 525.051 1H505.469M1 107.817L169.982 67.8308C184.008 65.2668 193.467 58.0743 193.467 49.9735V20.323V9.78387C193.467 4.93267 197.4 1 202.251 1H221.832M221.832 1H250.195M250.195 1H278.558M278.558 1H306.924M306.924 1V20.323V55.7423C306.924 60.7337 303.306 65.5207 296.865 69.0509L62.8139 197.336C52.968 202.733 46.8471 213.068 46.8471 224.296V240.342M306.924 1H335.286M335.286 1V20.323V59.0919C335.286 62.0155 334.043 64.8989 331.656 67.5136L213.175 197.282C208.003 202.947 205.136 210.34 205.136 218.011V240.342M335.286 1H363.65M363.65 1V20.323L363.428 206.088V240.342M363.65 1H392.015M392.015 1V20.323V59.1056C392.015 62.0204 393.25 64.8954 395.624 67.5041L513.712 197.291C518.862 202.951 521.716 210.328 521.716 217.981V240.342M392.015 1H420.377M420.377 1V20.323V55.7518C420.377 60.7376 423.987 65.5197 430.415 69.0489L664.058 197.332C673.893 202.732 680.005 213.061 680.005 224.28V240.342M420.377 1H448.743M448.743 1H477.106M477.106 1H505.469" stroke="url(#paint0_linear_0_3)" data-v-8cde9d93=""></path><defs data-v-8cde9d93=""><linearGradient id="paint0_linear_0_3" x1="362.013" y1="-25.478" x2="362.013" y2="240.781" gradientUnits="userSpaceOnUse" data-v-8cde9d93=""><stop offset="0" stop-color="white" stop-opacity="0" data-v-8cde9d93=""></stop><stop offset="0.7" stop-color="white" stop-opacity="0.35" data-v-8cde9d93=""></stop><stop offset="1" stop-color="white" stop-opacity="0" data-v-8cde9d93=""></stop></linearGradient></defs></svg>