<svg xmlns="http://www.w3.org/2000/svg" xmlns:xlink="http://www.w3.org/1999/xlink" viewBox="0,0,256,256" width="100px" height="100px" fill-rule="nonzero"><g fill="none" fill-rule="nonzero" stroke="none" stroke-width="1" stroke-linecap="none" stroke-linejoin="none" stroke-miterlimit="10" stroke-dasharray="" stroke-dashoffset="0" font-family="none" font-weight="none" font-size="none" text-anchor="none" style="mix-blend-mode: normal"><g transform="scale(5.33333,5.33333)"><path d="M44.584,29.618c1.669,-2.949 2.151,-6.159 1.031,-9.357c-0.533,-1.523 -1.472,-2.527 -2.649,-3.722c-1.295,-1.315 -2.878,-2.776 -4.525,-3.438c-2.953,-1.188 -6.45,-1.017 -9.632,-0.961c-3.317,0.058 -6.848,-0.507 -10.163,-0.455c-2.383,0.037 -4.752,0.442 -7.028,0.506c-1.983,0.055 -3.872,-0.228 -5.95,-0.213c-0.431,-0.09 -0.913,-0.048 -1.353,-0.02c-0.215,0.014 -0.439,0.045 -0.619,0.164c-0.192,0.127 -0.309,0.337 -0.419,0.539c-0.045,0.083 -0.092,0.172 -0.088,0.266c0.004,0.079 0.042,0.151 0.082,0.22c0.312,0.541 0.742,0.93 1.167,1.387c0.734,0.788 1.649,1.395 2.409,2.158c0.579,0.581 0.996,1.324 1.589,1.889c0.57,0.543 1.174,1.054 1.747,1.594c0.151,0.142 0.304,0.286 0.487,0.384c0.366,0.195 0.804,0.182 1.219,0.169c1.387,-0.042 5.402,-0.499 6.805,-0.498c3.771,0.002 8.911,0.727 13.886,0.559c0.601,-0.02 1.213,-0.041 1.795,0.11c0.989,0.257 1.827,1.034 2.157,2.001c0.33,0.967 0.786,2.386 0.161,3.195c-0.899,1.164 -3.149,1.251 -4.619,1.199c-1.47,-0.052 -8.478,0.021 -10.529,-0.125c-0.01,-0.029 -0.036,0.004 -0.066,0.005c-0.344,0.01 -0.688,0.02 -1.032,0.03c-0.386,0.011 -0.784,0.025 -1.137,0.181c-0.08,0.035 -0.16,0.08 -0.21,0.153c-0.03,0.044 -0.048,0.095 -0.064,0.145c-0.073,0.228 -0.131,0.468 -0.095,0.705c0.06,0.401 0.369,0.714 0.67,0.986c0.388,0.35 2.015,1.461 2.386,1.828c1.695,1.675 2.775,3.047 3.62,3.717c0.568,0.45 1.189,0.92 1.912,0.946c1.372,0.05 2.971,-0.069 4.344,-0.113c1.383,-0.044 2.685,0.141 4.047,-0.104c1.231,-0.222 2.467,-0.524 3.555,-1.139c0.514,-0.29 0.988,-0.647 1.445,-1.021c0.604,-0.495 1.18,-1.023 1.735,-1.572c0.672,-0.661 1.466,-1.479 1.929,-2.298z" fill="none" stroke="#3fcf8e" stroke-linecap="round" stroke-linejoin="round"></path><path d="M44.584,29.618c1.669,-2.949 2.151,-6.159 1.031,-9.357c-0.533,-1.523 -1.472,-2.527 -2.649,-3.722c-1.295,-1.315 -2.878,-2.776 -4.525,-3.438c-2.953,-1.188 -6.45,-1.017 -9.632,-0.961c-3.317,0.058 -6.848,-0.507 -10.163,-0.455c-2.383,0.037 -4.752,0.442 -7.028,0.506c-1.983,0.055 -3.872,-0.228 -5.95,-0.213c-0.431,-0.09 -0.913,-0.048 -1.353,-0.02c-0.215,0.014 -0.439,0.045 -0.619,0.164c-0.192,0.127 -0.309,0.337 -0.419,0.539c-0.045,0.083 -0.092,0.172 -0.088,0.266c0.004,0.079 0.042,0.151 0.082,0.22c0.312,0.541 0.742,0.93 1.167,1.387c0.734,0.788 1.649,1.395 2.409,2.158c0.579,0.581 0.996,1.324 1.589,1.889c0.57,0.543 1.174,1.054 1.747,1.594c0.151,0.142 0.304,0.286 0.487,0.384c0.366,0.195 0.804,0.182 1.219,0.169c1.387,-0.042 5.402,-0.499 6.805,-0.498c3.771,0.002 8.911,0.727 13.886,0.559c0.601,-0.02 1.213,-0.041 1.795,0.11c0.989,0.257 1.827,1.034 2.157,2.001c0.33,0.967 0.786,2.386 0.161,3.195c-0.899,1.164 -3.149,1.251 -4.619,1.199c-1.47,-0.052 -8.478,0.021 -10.529,-0.125c-0.01,-0.029 -0.036,0.004 -0.066,0.005c-0.344,0.01 -0.688,0.02 -1.032,0.03c-0.386,0.011 -0.784,0.025 -1.137,0.181c-0.08,0.035 -0.16,0.08 -0.21,0.153c-0.03,0.044 -0.048,0.095 -0.064,0.145c-0.073,0.228 -0.131,0.468 -0.095,0.705c0.06,0.401 0.369,0.714 0.67,0.986c0.388,0.35 2.015,1.461 2.386,1.828c1.695,1.675 2.775,3.047 3.62,3.717c0.568,0.45 1.189,0.92 1.912,0.946c1.372,0.05 2.971,-0.069 4.344,-0.113c1.383,-0.044 2.685,0.141 4.047,-0.104c1.231,-0.222 2.467,-0.524 3.555,-1.139c0.514,-0.29 0.988,-0.647 1.445,-1.021c0.604,-0.495 1.18,-1.023 1.735,-1.572c0.672,-0.661 1.466,-1.479 1.929,-2.298z" fill="none" stroke="#3fcf8e" stroke-linecap="round" stroke-linejoin="round"></path><path d="M44.584,29.618c1.669,-2.949 2.151,-6.159 1.031,-9.357c-0.533,-1.523 -1.472,-2.527 -2.649,-3.722c-1.295,-1.315 -2.878,-2.776 -4.525,-3.438c-2.953,-1.188 -6.45,-1.017 -9.632,-0.961c-3.317,0.058 -6.848,-0.507 -10.163,-0.455c-2.383,0.037 -4.752,0.442 -7.028,0.506c-1.983,0.055 -3.872,-0.228 -5.95,-0.213c-0.431,-0.09 -0.913,-0.048 -1.353,-0.02c-0.215,0.014 -0.439,0.045 -0.619,0.164c-0.192,0.127 -0.309,0.337 -0.419,0.539c-0.045,0.083 -0.092,0.172 -0.088,0.266c0.004,0.079 0.042,0.151 0.082,0.22c0.312,0.541 0.742,0.93 1.167,1.387c0.734,0.788 1.649,1.395 2.409,2.158c0.579,0.581 0.996,1.324 1.589,1.889c0.57,0.543 1.174,1.054 1.747,1.594c0.151,0.142 0.304,0.286 0.487,0.384c0.366,0.195 0.804,0.182 1.219,0.169c1.387,-0.042 5.402,-0.499 6.805,-0.498c3.771,0.002 8.911,0.727 13.886,0.559c0.601,-0.02 1.213,-0.041 1.795,0.11c0.989,0.257 1.827,1.034 2.157,2.001c0.33,0.967 0.786,2.386 0.161,3.195c-0.899,1.164 -3.149,1.251 -4.619,1.199c-1.47,-0.052 -8.478,0.021 -10.529,-0.125c-0.01,-0.029 -0.036,0.004 -0.066,0.005c-0.344,0.01 -0.688,0.02 -1.032,0.03c-0.386,0.011 -0.784,0.025 -1.137,0.181c-0.08,0.035 -0.16,0.08 -0.21,0.153c-0.03,0.044 -0.048,0.095 -0.064,0.145c-0.073,0.228 -0.131,0.468 -0.095,0.705c0.06,0.401 0.369,0.714 0.67,0.986c0.388,0.35 2.015,1.461 2.386,1.828c1.695,1.675 2.775,3.047 3.62,3.717c0.568,0.45 1.189,0.92 1.912,0.946c1.372,0.05 2.971,-0.069 4.344,-0.113c1.383,-0.044 2.685,0.141 4.047,-0.104c1.231,-0.222 2.467,-0.524 3.555,-1.139c0.514,-0.29 0.988,-0.647 1.445,-1.021c0.604,-0.495 1.18,-1.023 1.735,-1.572c0.672,-0.661 1.466,-1.479 1.929,-2.298z" fill="#3fcf8e" stroke="none" stroke-linecap="butt" stroke-linejoin="miter"></path><path d="M44.584,29.618c1.669,-2.949 2.151,-6.159 1.031,-9.357c-0.533,-1.523 -1.472,-2.527 -2.649,-3.722c-1.295,-1.315 -2.878,-2.776 -4.525,-3.438c-2.953,-1.188 -6.45,-1.017 -9.632,-0.961c-3.317,0.058 -6.848,-0.507 -10.163,-0.455c-2.383,0.037 -4.752,0.442 -7.028,0.506c-1.983,0.055 -3.872,-0.228 -5.95,-0.213c-0.431,-0.09 -0.913,-0.048 -1.353,-0.02c-0.215,0.014 -0.439,0.045 -0.619,0.164c-0.192,0.127 -0.309,0.337 -0.419,0.539c-0.045,0.083 -0.092,0.172 -0.088,0.266c0.004,0.079 0.042,0.151 0.082,0.22c0.312,0.541 0.742,0.93 1.167,1.387c0.734,0.788 1.649,1.395 2.409,2.158c0.579,0.581 0.996,1.324 1.589,1.889c0.57,0.543 1.174,1.054 1.747,1.594c0.151,0.142 0.304,0.286 0.487,0.384c0.366,0.195 0.804,0.182 1.219,0.169c1.387,-0.042 5.402,-0.499 6.805,-0.498c3.771,0.002 8.911,0.727 13.886,0.559c0.601,-0.02 1.213,-0.041 1.795,0.11c0.989,0.257 1.827,1.034 2.157,2.001c0.33,0.967 0.786,2.386 0.161,3.195c-0.899,1.164 -3.149,1.251 -4.619,1.199c-1.47,-0.052 -8.478,0.021 -10.529,-0.125c-0.01,-0.029 -0.036,0.004 -0.066,0.005c-0.344,0.01 -0.688,0.02 -1.032,0.03c-0.386,0.011 -0.784,0.025 -1.137,0.181c-0.08,0.035 -0.16,0.08 -0.21,0.153c-0.03,0.044 -0.048,0.095 -0.064,0.145c-0.073,0.228 -0.131,0.468 -0.095,0.705c0.06,0.401 0.369,0.714 0.67,0.986c0.388,0.35 2.015,1.461 2.386,1.828c1.695,1.675 2.775,3.047 3.62,3.717c0.568,0.45 1.189,0.92 1.912,0.946c1.372,0.05 2.971,-0.069 4.344,-0.113c1.383,-0.044 2.685,0.141 4.047,-0.104c1.231,-0.222 2.467,-0.524 3.555,-1.139c0.514,-0.29 0.988,-0.647 1.445,-1.021c0.604,-0.495 1.18,-1.023 1.735,-1.572c0.672,-0.661 1.466,-1.479 1.929,-2.298z" fill="none" stroke="#3fcf8e" stroke-linecap="round" stroke-linejoin="round"></path></g></g></svg>